<svg xmlns="http://www.w3.org/2000/svg" viewBox="0 0 397.4 380.2"><defs><style>.cls-1{isolation:isolate;}.cls-2{fill:#fff;}</style></defs><title>alice_crying</title><g id="Image_13" data-name="Image 13" class="cls-1"><g id="alice"><path d="M303.8 0h7c7.7 1.9 15.7 3.2 23.1 5.7 18.3 6.4 34.7 16.4 49.9 28.2 7.2 6.2 16.4 17.7 12.6 76.5l-.3 2.8q-4.5 42.7-9 85.5c-.9 8.2-1.2 16.4-2.5 24.5q-5.4 34.7-11.4 69.3c-2 11.7-6.4 22.8-11.9 33.3h-.1l1.1-3.1c5-13.4 3.6-27 .2-40.3-5.7-22.9-12.3-45.5-18.6-68.2-1.1-4.1-2.3-8.3-3.2-11.2-1.1 6.7-2 14.5-3.7 22.1-6.2 28.1-18.2 54.1-31.5 79.4-6.6 12.5-13.7 25-25.1 33.9-9.6 7.5-19.7 14.3-29.7 21.1-5.2 3.5-11 4.9-17.5 4.6-20.5-.7-41-.9-61.5-1.3-2.9-.1-6.5.3-8.7-1.1a87.4 87.4 0 0 1-13.3-11.7c-9.6-10-19-20.4-28.5-30.5a3 3 0 0 0-2.3-.6l-22.8 2.8 1.8-30.6c-1.6.4-3.5.3-4.1 1.1-2.6 3.7-4.5 7.9-7.3 11.4s-4.5 7.9-.9 12.3a4.4 4.4 0 0 1 .9 2 2.3 2.3 0 0 1-.3 1.7c-2.5 2.6-5 5.3-7.8 7.6s-5.4 7.9-5.1 12.8a58.3 58.3 0 0 1-3.1 22.9 1.3 1.3 0 0 1-.5.7 26.2 26.2 0 0 1-14.6 1.1l-1.2-9.9-1.6 1.1c-2.9 1.7-5.8 3.3-8.7 5.1s-2.9 3.2-4.4 3.3a228.9 228.9 0 0 1-23.3.6c-5.4-.2-10.8-1.5-16.1-2.3v-.7c3.7-2.8 7.4-5.7 11.2-8.4 1.7-1.2 4.1-1.7 5.6-3.1 9.6-9.5 20.5-16.9 31.9-23.8.2-1.1.4-2.1.7-3.1 2.3-7.3 4.8-14.5 6.9-21.8 1.7-5.7 2.8-11.6 4.4-17.4.3-1.2 1.2-2.2 2.2-4.1l3 1.4c1.5-4.6 3.1-9.5 4.6-14.5a2.1 2.1 0 0 0-.1-1.5c-3.4-6.2-6.6-12.4-10.3-18.4-1.8-2.9-1-5.4.5-7.9a472.5 472.5 0 0 1 42.7-59.6 169.4 169.4 0 0 1 12.4-13.4c3.5-3.3 8.2-2.6 12.2-1.6 5.6 1.5 12.4 2.6 16.3 6.3 9.8 9.6 18.6 20.3 27.3 30.9 19.1 23 35.8 47.9 56 70.1 5.1 5.6 10 11.5 15.1 17.4 1.7-2.2 3.3-4.3 4.9-6.4a1.9 1.9 0 0 0 .2-1.6c-8-16.9-14.7-34.3-18.1-52.8-1.2-6.7-2.3-13.4-3.6-20.8-4.9-3.5-10.7-7.5-16.3-11.7-3.5-2.6-7.4-4.9-9.9-8.3s-5-9.2-7.3-13.8a5.3 5.3 0 0 1-.7-3.4c1.7-5.3 3.6-10.6 5.6-15.8.3-.9 1.3-1.6 2.6-3.2s.5-2.1.8-3.6 1-2.8 2.9-2a3.5 3.5 0 0 1 1.8 1.9c.9 3.8 1.6 7.6 2.2 11.5.4 2.3-.5 5.3.6 6.9 2.5 3.7 5.9 6.7 9.6 10.9l-2.8-4.8c-2.9-5-5.3-10.1-4.5-16.1a3.1 3.1 0 0 1 1.2-2.1c.4-.2 1.6.4 2 1 5 6 10 12 14.7 18.1s5.9 10.6 7.8 16.7c2.7 8.7 7.3 16.9 11 25.3l17 38.5 4.2-4.4.3-.5c6.2-13.9 11.1-28.4 13.6-43.4a87.4 87.4 0 0 1 7.5-24.8c.6-1.2 1.5-3.1 1.1-3.9-2-3.8-4.5-7.3-6.6-10.6-4.5 2.8-8.9 5.9-13.5 8.4s-8.6 2-12.5-1.4a27.2 27.2 0 0 0-5.2-3.2 8.1 8.1 0 0 0-2.3-.6c-5.3-1-8.3-2.7-5.5-9.1l-13.7-5.1v-3.1c-5 0-9.2-1.4-12-5.8l1-1.3c6.4-7.3 6-15.3 1.9-23.5-3.2-6.5-5.8-13.2-4.4-20.7l-1-.2c-8.4-2-16.2-5.2-22-12-3.7-4.3-6.5-8.8-4.5-14.7s6.9-7.7 12.4-8.9c7.8-1.7 15.3-.4 22.9 1.3a2.2 2.2 0 0 0 1.7-.2c13.5-12 29.1-19.3 47.2-21.1 4.1-.4 8.3-.1 12.8-.1l-1.8-1.4c-10.5-8-14-17.5-10.5-28.5 1.8-5.5 5.1-9.9 11-11.3s11.7-2.5 17.6-3.7zm15.5 133.2c0 9.6-3.5 14.1-13.5 17.2l29 28.8c-3.7-18.7-9.6-39-8.9-59.2L311 136.5c2 1.4 4.8.5 8.3-3.3z"/><path class="cls-2" d="M279.5 380.2c-7.8-1.4-16.2.5-24.1-.6l17.8-1.2c1.9-.1 14.5-.5 8.7-4.1s-10.2-3.9-15.2-4.8l-9-1.6c-2.1-.3-6.9-.1-8.6-1.4a196.5 196.5 0 0 1 24.6-5.7l11.5-2.1c2.9-.6 8.1-.8 8.9-4.3 1.7-7.3-9.2-12.1-8.9-19.1a11.5 11.5 0 0 1 .7-1.8 13.8 13.8 0 0 0-2.3-2.1l-3.9-3.5-9.3-8.3c-1.2-1.1-2.7-3.1-4.1-3.8s.4-1.1-2.1-.3a18.1 18.1 0 0 0-2.7 1.6 105.6 105.6 0 0 1-11.3 5.7c-7.4 3-16.5 3.5-24.3 2.2-16-2.6-29.9-11.1-42.4-21a149.8 149.8 0 0 1-18.2-16.9q-3.9-4.3-7.5-9c-1.2-1.6-2.3-3.3-3.6-4.9s-1.5-2.3-.9-5.1a134.8 134.8 0 0 0 2.1-50.8c-1.3-8.6-2.9-17.2-4.9-25.6-1-4.2-2.1-8.4-3.4-12.5a33.7 33.7 0 0 0-1.9-5.6c-.7-1.3-3.1-2.9-2.9-4.2a4.8 4.8 0 0 1 2.9-2.4c1.2.1 3.3 2.9 4.2 3.7 3.1 2.9 6.2 5.9 9.2 8.9 6 5.8 11.7 11.8 17.4 18a417.4 417.4 0 0 1 35.6 43.8c10.9 15.6 20.2 32.2 30.9 47.9l5.4-7c1.6 2.5 2.5 5.3 4.5 7.5.5.6 2.2 2.6 2.9 2.8s3.1-1.1 4.5-1.9c6.8-4 12.9-9.1 19-14.2s11.3-9.6 16.6-14.8 11.7-10.2 16-16.3c1.7 1.6 6 7.8 8 7s5.4-7.3 6.8-9.8c1.3.7-3.8 18.4-4.4 20.5-1.5 5.4-3.3 10.9-5.1 16.2a149.5 149.5 0 0 1-6.8 17.2c-3.2 6.3-7 12.3-10.4 18.5 5.5 0 11.4-1.8 17-2.3s11.2-.4 16.7-.8a26.6 26.6 0 0 1-8.4 16.8c-2.3 2.2-5 4.2-7 6.7s-3.1 5.3-5.2 7.5-4.2 6-5.8 6.7-6-2.5-7.6-3.4c-6.1-3.5-7.7-9.3-11.9-14.5-1.3 1.5-1.2 1.6-.2 3.3l2.4 4.3a20.8 20.8 0 0 0 5.2 6.5c4.4 3.4 9.2 5.7 14 2.7a23.4 23.4 0 0 0 3.5-2.7c1.4-1.3 1.1-1.7 2.8-.9s4.1 3.9 5.4 5.5 2.9 3.9.9 6-5.4 2.5-7.9 3.1c-6.5 1.6-13 3-19.5 4.4-1.7.4-15.9 2.7-9.2 5.1 2.8 1 6.4 1 9.3 1.4l9.9 1.4c6.2 1 13.2 1.7 18.8 4.7-1 2.1-6.4 2.2-8.4 2.5-4 .5-8 .6-12 .7-7.6.2-15.2.4-22.8.4z"/><path class="cls-2" d="M345 186.7c-.3 2.8-.4 5.3-1.7 7.9s-3.2 6.2-4.4 6.4c1.1-4.6 2.4-7.5.5-12a69.6 69.6 0 0 0-6.5-11.9c-2.4-3.5-5.2-6.7-9.2-8.3s-8.7 1.8-11.6 5.7c-6.1 8.4-11.4 17.7-16.5 26.7-2.5 4.4-4.7 9-6.8 13.6-1.1 2.4-2.2 4.8-3.2 7.3s-1.8 3.4 1.2 4.8c-3.4 3.2-5.3 7.8-8.2 11.4a100.4 100.4 0 0 1-9.6 10.1 129 129 0 0 0 5.9-19.2c.7-3.3 1.4-6.6 2.2-9.9s1.3-4.7 5.2-3.3a69.8 69.8 0 0 1 6-15.2c1.3-2.5 2.6-5 4.1-7.4s3.9-4.6 3.9-6.4c-3.5 0-14.1-.8-11.4-7.1s11.1-6.2 15.8-6.2c-5.5-4-7.9-7.7-10.2-14.1s-1.2-10.2 5.2-11.9 12.8 1.2 18.1 3.6 11.6 5.6 16 10.3c.8-2.6 1.4-6.1 4.9-5.1s4.9 5 6 7.6a55.2 55.2 0 0 1 4.3 22.5c-.1.6 0-.7 0 .1zM332.9 75.9A58.5 58.5 0 0 1 308.5 61c3.7-1.2 5.4-2.3 5.6-6.3s-.9-8.2-2.8-12.5a68.7 68.7 0 0 1 14.2-1c1.5 0 6.8-.4 7.9.5s1.4 5 1.6 6.2c1.5 9.7 0 18.6-2.1 28-9.5-3 .5-2.1 0 0z"/><path class="cls-2" d="M290.1 19.7c7.1 4.8 12.7 12.3 17.1 19.6 2 3.4 4.4 7.4 5.3 11.3.3 1.5.9 5.8 0 7s-3.7 1.2-5.2 1.3c-9.5.6-15-8.5-19.5-15.4a19.3 19.3 0 0 1 2.3-23.8c.6.4-1.4 1.6 0 0zM252.7 150a27.4 27.4 0 0 1-6.7 6.2c-2 1.2-1.9.9-4.2.3-.7-.2-4.6-.7-4.8-1.3s2.9-.7 4.2-1.4 2.1-2.2 3.3-3.2 6-3.1 8.2-.7c-1.2 1.7-.2-.1 0 .1z"/></g></g></svg>