<svg xmlns="http://www.w3.org/2000/svg" viewBox="0 0 294 57.3"><defs><style>.cls-1{isolation:isolate;}.cls-2{fill:#fff;}</style></defs><title>pool</title><g id="Image_13" data-name="Image 13" class="cls-1"><path class="cls-2" d="M13.1 26.3c24.7-8.4 52-8.1 77.7-10.7-5.8-2.5-15.6-1.2-21.9-1.7-3.6-.3-19.4-.7-21-4.6s41-5.7 46-6c0-.5-10 .2-9.8.2C128.9-2 175 .1 219.9 2.1c21.5 1 45.6.4 66.6 5.8 12.3 3.2 8.3 9.1-2.2 12.2-8.4 2.5-6.2 3.6 2.2 9.9 3.2 2.4-15.3 6.4-20.4 7.1-11.5 1.4-23 2.1-34.6 2.7s-26.7-1.7-37.1 1.9c5.5 4.3 26.3 4.1 6.5 9.3-15.1 4-32 4.5-47.5 5.2s-31.8 1.7-46.9-.2c-6.2-.8-12.9-2-6.3-7.9s13.5-2.8 19.1-5.8c-4-1.9-13.2-.2-17.6 0-6.8.2-13.6.4-20.4.4q-21.6 0-43.2-.6c-7.9-.2-30.1 1.1-36.3-4.8s6.4-9.4 11.4-11.1z" id="pool"/></g></svg>